{"title":"Two and a Half Men S11 Season 11 720p 5.1Ch Web-DL DeeJayAhmed","uid":14090594,"size":3799268613,"categoryP":"video","categoryS":"hd___tv_shows","magnet":"?xt=urn:btih:2a5b1de037734c0e1561cf68d26174d8b6951fe3&amp;dn=Two+and+a+Half+Men+S11+Season+11+720p+5.1Ch+Web-DL+DeeJayAhmed&amp;tr=udp%3A%2F%2Ftracker.leechers-paradise.org%3A6969&amp;tr=udp%3A%2F%2Fzer0day.ch%3A1337&amp;tr=udp%3A%2F%2Fopen.demonii.com%3A1337&amp;tr=udp%3A%2F%2Ftracker.coppersurfer.tk%3A6969&amp;tr=udp%3A%2F%2Fexodus.desync.com%3A6969","seeders":18,"leechers":10,"uploader":"DeeJayPirate","files":46,"time":1459293982,"description":"DeeJayAhmed  \nhttps://www.DeeJayAhmed.com\r\r\nKeep Seeding!!=)) \r\nDo Comment On The A/V Quality Considering The Size Of The File..!\r\nHelp Me By Donating Bitcoins : 14i1UCWye2SCjoAHR5u6LDswWgAy55dxAv\r\n\r\nVideo \r\nID : 1 \r\nFormat : AVC \r\nFormat/Info : Advanced Video Codec \r\nFormat profile :    \r\nFormat settings, CABAC : Yes \r\nFormat settings, ReFrames : 8 frames \r\nCodec ID : V_MPEG4/ISO/AVC \r\nDuration : 21mn 22s \r\nBit rate : 948 Kbps \r\nWidth : 1 276 pixels \r\nHeight : 720 pixels \r\nDisplay aspect ratio : 16:9 \r\nFrame rate mode : Constant \r\nFrame rate : 23.976 (24000/1001) fps \r\nColor space : YUV \r\nChroma subsampling : 4:2:0 \r\nBit depth : 8 bits \r\nScan type : Progressive \r\nBits/(Pixel*Frame) : 0.043 \r\nStream size : 145 MiB (89%) \r\nDefault : Yes \r\nForced : No \r\n\r\nAudio \r\nID : 2 \r\nFormat : AAC \r\nFormat/Info : Advanced Audio Codec \r\nFormat profile : HE-AAC / LC \r\nCodec ID : A_AAC \r\nDuration : 21mn 22s \r\nBit rate : 120 Kbps \r\nChannel(s) : 6 channels \r\nChannel positions : Front: L C R, Side: L R, LFE \r\nSampling rate : 48.0 KHz / 24.0 KHz \r\nFrame rate : 23.438 fps (1024 spf) \r\nCompression mode : Lossy \r\nDelay relative to video : 31ms \r\nStream size : 18.3 MiB (11%) \r\nLanguage : English \r\nDefault : Yes \r\nForced : No","torrent":{"xt":"urn:btih:2a5b1de037734c0e1561cf68d26174d8b6951fe3","amp;dn":"Two+and+a+Half+Men+S11+Season+11+720p+5.1Ch+Web-DL+DeeJayAhmed","amp;tr":["udp%3A%2F%2Ftracker.leechers-paradise.org%3A6969","udp%3A%2F%2Fzer0day.ch%3A1337","udp%3A%2F%2Fopen.demonii.com%3A1337","udp%3A%2F%2Ftracker.coppersurfer.tk%3A6969","udp%3A%2F%2Fexodus.desync.com%3A6969"],"infoHash":"2a5b1de037734c0e1561cf68d26174d8b6951fe3","infoHashBuffer":{"type":"Buffer","data":[42,91,29,224,55,115,76,14,21,97,207,104,210,97,116,216,182,149,31,227]},"announce":[],"urlList":[]}}